<svg width="80" height="80" viewBox="0 0 80 80" fill="none" xmlns="http://www.w3.org/2000/svg">
<g clip-path="url(#clip0_68_933)">
<path d="M80 0H0V80H80V0Z" fill="#E6E6E6"/>
<path d="M80 0H0V80H80V0Z" fill="#111111"/>
<path d="M64.8194 45.6584C64.0786 45.6584 63.4268 45.525 62.8638 45.2584C62.3107 44.9818 61.9107 44.572 61.6638 44.0287C61.4169 43.4855 61.3774 42.809 61.5453 41.9991C61.7823 40.8831 62.2515 39.9942 62.9527 39.3324C63.654 38.6707 64.6663 38.3398 65.9897 38.3398C66.7009 38.3398 67.2885 38.4831 67.7527 38.7695C68.2268 39.0461 68.5577 39.4213 68.7453 39.8954C68.9329 40.3695 68.9626 40.9078 68.8342 41.5102L68.5675 42.7695H63.5897C63.5996 43.2337 63.7626 43.5596 64.0786 43.7473C64.3947 43.925 64.9429 44.0139 65.7231 44.0139C66.1083 44.0139 66.5083 43.9794 66.9231 43.9102C67.3379 43.8411 67.6885 43.7522 67.9749 43.6435L67.649 45.1991C67.2836 45.3572 66.8589 45.4707 66.3749 45.5398C65.891 45.6189 65.3725 45.6584 64.8194 45.6584ZM63.886 41.3917H66.7897L66.849 41.0806C66.928 40.735 66.8836 40.4633 66.7157 40.2658C66.5477 40.0584 66.2169 39.9547 65.7231 39.9547C65.1503 39.9547 64.7255 40.0732 64.449 40.3102C64.1823 40.5374 63.9947 40.8979 63.886 41.3917Z" fill="#E6E6E6"/>
<path d="M55.6475 45.5102L57.1289 38.488H59.3956L59.3363 39.1398C59.682 38.9522 60.0968 38.7843 60.5808 38.6361C61.0647 38.4781 61.5388 38.3794 62.003 38.3398L61.6326 40.1324C61.366 40.1621 61.0697 40.2115 60.7438 40.2806C60.4178 40.3398 60.1018 40.4139 59.7956 40.5028C59.4993 40.5917 59.2425 40.6855 59.0252 40.7843L58.0326 45.5102H55.6475Z" fill="#E6E6E6"/>
<path d="M49.3407 45.6587C48.5704 45.6587 47.9876 45.4167 47.5926 44.9327C47.2074 44.4488 47.1087 43.7723 47.2963 42.9031L48.2296 38.4883H50.6148L49.7111 42.7698C49.6222 43.1649 49.642 43.4562 49.7704 43.6438C49.9087 43.8216 50.1902 43.9105 50.6148 43.9105C50.9013 43.9105 51.1827 43.8512 51.4593 43.7327C51.7457 43.6142 51.9926 43.4661 52.2 43.2883L53.2222 38.4883H55.6074L54.1259 45.5105H51.9037L51.9482 44.9179C51.6124 45.1352 51.2272 45.313 50.7926 45.4512C50.358 45.5895 49.8741 45.6587 49.3407 45.6587Z" fill="#E6E6E6"/>
<path d="M43.7691 45.5556C42.6871 45.5556 41.9124 45.2556 41.4449 44.6556C40.9773 44.0557 40.8504 43.2292 41.0641 42.1759L41.8857 38.3164L37.128 38.2178L30 38.0841L30.2222 36.7818H37.3573L42.27 36.8519L42.8148 34L46 34.0741L45.3921 36.8519H53.5426H57.2593L57.1852 37.4074L57.1111 37.934L53.5426 38.0841L45.1116 38.3164L44.3501 41.956C44.2567 42.4093 44.27 42.7293 44.3902 42.9159C44.5238 43.0892 44.8577 43.1759 45.3921 43.1759C45.8062 43.1759 46.2336 43.1092 46.6744 42.9759L46.2136 45.1556C45.5323 45.4222 44.7175 45.5556 43.7691 45.5556Z" fill="#E6E6E6"/>
<path d="M31.7168 48.7102L33.8798 38.488H35.9538V39.0954C36.2896 38.8584 36.6452 38.6757 37.0205 38.5473C37.4057 38.409 37.8353 38.3398 38.3094 38.3398C39.3464 38.3398 40.0772 38.651 40.502 39.2732C40.9266 39.8855 41.0205 40.7942 40.7835 41.9991C40.5365 43.2633 40.0674 44.1917 39.3761 44.7843C38.6846 45.367 37.7711 45.6584 36.6353 45.6584C35.9044 45.6584 35.3069 45.5053 34.8427 45.1991L34.102 48.7102H31.7168ZM36.3983 43.9102C36.902 43.9102 37.3168 43.7572 37.6427 43.451C37.9785 43.1448 38.2205 42.6461 38.3686 41.9547C38.5069 41.2831 38.4872 40.8041 38.3094 40.5176C38.1316 40.2313 37.7809 40.088 37.2575 40.088C36.9909 40.088 36.739 40.1324 36.502 40.2213C36.2748 40.3102 36.0476 40.4435 35.8205 40.6213L35.2131 43.4658C35.3513 43.6139 35.5094 43.7275 35.6872 43.8065C35.8748 43.8757 36.1118 43.9102 36.3983 43.9102Z" fill="#E6E6E6"/>
<path d="M26.3433 45.6584C25.3755 45.6584 24.6693 45.3769 24.2248 44.8139C23.7804 44.251 23.6767 43.4065 23.9137 42.2806C24.0816 41.5004 24.3533 40.8189 24.7285 40.2361C25.1039 39.6435 25.5829 39.1794 26.1656 38.8435C26.7582 38.5078 27.4446 38.3398 28.2248 38.3398C28.6298 38.3398 28.9557 38.3893 29.2026 38.488C29.4496 38.5769 29.6816 38.7102 29.8989 38.888L29.973 38.488H32.3582L30.8767 45.5102H28.8174L28.8026 44.9176C28.1113 45.4115 27.2915 45.6584 26.3433 45.6584ZM27.4841 43.925C28.0076 43.925 28.4915 43.7473 28.9359 43.3917L29.5285 40.5769C29.331 40.251 28.9804 40.088 28.4767 40.088C27.9137 40.088 27.4594 40.2658 27.1137 40.6213C26.7681 40.967 26.5113 41.5201 26.3433 42.2806C26.215 42.9028 26.2347 43.3324 26.4026 43.5695C26.5804 43.8065 26.9409 43.925 27.4841 43.925Z" fill="#E6E6E6"/>
<path d="M17.5966 45.7032C16.1145 45.7032 14.8273 45.44 13.7351 44.9138C12.6625 44.368 11.8921 43.559 11.424 42.4869C10.9754 41.4147 10.9169 40.0795 11.2485 38.481C11.7556 36.0443 12.8087 34.2315 14.408 33.0424C16.0071 31.8533 18.1232 31.2588 20.7561 31.2588C21.7702 31.2588 22.6381 31.3368 23.3597 31.4927C24.0813 31.6292 24.764 31.8631 25.4075 32.1945L24.6762 35.5278C23.7205 35.0015 22.5016 34.7383 21.0194 34.7383C19.6542 34.7383 18.5522 35.0112 17.7137 35.557C16.8945 36.1029 16.3387 37.0775 16.0462 38.481C15.7731 39.7871 15.8609 40.7422 16.3094 41.3465C16.7775 41.9313 17.8112 42.2237 19.4104 42.2237C20.8341 42.2237 22.1896 41.9313 23.4768 41.3465L22.7454 44.826C21.9653 45.1379 21.1559 45.3621 20.3173 45.4986C19.4787 45.635 18.5718 45.7032 17.5966 45.7032Z" fill="#E6E6E6"/>
</g>
<defs>
<clipPath id="clip0_68_933">
<rect width="80" height="80" fill="white"/>
</clipPath>
</defs>
</svg>
