<svg width="24" height="24" viewBox="0 0 24 24" fill="none" xmlns="http://www.w3.org/2000/svg">
<path fill-rule="evenodd" clip-rule="evenodd" d="M20.4 4.7998H3.6C3.44087 4.7998 3.28826 4.86302 3.17574 4.97554C3.06321 5.08806 3 5.24067 3 5.3998V18.5998C3 18.7589 3.06321 18.9115 3.17574 19.0241C3.28826 19.1366 3.44087 19.1998 3.6 19.1998H20.4C20.5591 19.1998 20.7117 19.1366 20.8243 19.0241C20.9368 18.9115 21 18.7589 21 18.5998V5.3998C21 5.24067 20.9368 5.08806 20.8243 4.97554C20.7117 4.86302 20.5591 4.7998 20.4 4.7998ZM4.2 17.9998V5.9998H19.8V17.9998H4.2Z" fill="white"/>
<path fill-rule="evenodd" clip-rule="evenodd" d="M20.7889 5.85581L12.3349 13.0558C12.2261 13.1486 12.0877 13.1995 11.9447 13.1992C11.8016 13.199 11.6634 13.1477 11.5549 13.0546L3.20767 5.85461C3.11475 5.77465 3.04855 5.66815 3.01798 5.54944C2.98741 5.43072 2.99393 5.3055 3.03668 5.1906C3.07942 5.07571 3.15633 4.97667 3.25705 4.9068C3.35778 4.83693 3.47749 4.79959 3.60007 4.79981H20.4001C20.5226 4.80004 20.6422 4.8378 20.7426 4.908C20.8431 4.97821 20.9196 5.07749 20.962 5.1925C21.0043 5.30751 21.0104 5.43272 20.9795 5.55131C20.9485 5.66989 20.882 5.77615 20.7889 5.85581ZM18.7705 5.99981H5.21407L11.9485 11.809L18.7705 5.99981Z" fill="white"/>
</svg>
