<svg width="24" height="24" viewBox="0 0 24 24" fill="none" xmlns="http://www.w3.org/2000/svg">
<path d="M6.18 15.6404C6.75817 15.6404 7.31266 15.8701 7.72149 16.2789C8.13032 16.6878 8.36 17.2423 8.36 17.8204C8.36 19.0004 7.38 20.0004 6.18 20.0004C5 20.0004 4 19.0004 4 17.8204C4 17.2423 4.22968 16.6878 4.63851 16.2789C5.04734 15.8701 5.60183 15.6404 6.18 15.6404ZM4 4.44043C8.12677 4.44043 12.0845 6.07978 15.0026 8.99785C17.9206 11.9159 19.56 15.8737 19.56 20.0004H16.73C16.73 16.6242 15.3888 13.3863 13.0015 10.999C10.6141 8.61162 7.37621 7.27043 4 7.27043V4.44043ZM4 10.1004C6.62564 10.1004 9.14375 11.1435 11.0004 13.0001C12.857 14.8567 13.9 17.3748 13.9 20.0004H11.07C11.07 18.1253 10.3251 16.3271 8.99924 15.0012C7.67336 13.6753 5.87508 12.9304 4 12.9304V10.1004Z" fill="black"/>
</svg>
