<svg width="80" height="80" viewBox="0 0 80 80" fill="none" xmlns="http://www.w3.org/2000/svg">
<g clip-path="url(#clip0_1_286)">
<path d="M80 0H0V80H80V0Z" fill="#E6E6E6"/>
<path d="M80 0H0V80H80V0Z" fill="#111111"/>
<path d="M64.8198 45.6584C64.079 45.6584 63.4272 45.525 62.8642 45.2584C62.3111 44.9818 61.9111 44.572 61.6642 44.0287C61.4173 43.4855 61.3778 42.809 61.5457 41.9991C61.7827 40.8831 62.2518 39.9942 62.9531 39.3324C63.6544 38.6707 64.6667 38.3398 65.9901 38.3398C66.7013 38.3398 67.2889 38.4831 67.7531 38.7695C68.2272 39.0461 68.5581 39.4213 68.7457 39.8954C68.9333 40.3695 68.963 40.9078 68.8346 41.5102L68.5679 42.7695H63.5901C63.6 43.2337 63.763 43.5596 64.079 43.7473C64.3951 43.925 64.9433 44.0139 65.7235 44.0139C66.1087 44.0139 66.5087 43.9794 66.9235 43.9102C67.3383 43.8411 67.6889 43.7522 67.9753 43.6435L67.6494 45.1991C67.284 45.3572 66.8593 45.4707 66.3753 45.5398C65.8914 45.6189 65.3729 45.6584 64.8198 45.6584ZM63.8864 41.3917H66.7901L66.8494 41.0806C66.9284 40.735 66.884 40.4633 66.7161 40.2658C66.5481 40.0584 66.2173 39.9547 65.7235 39.9547C65.1507 39.9547 64.7259 40.0732 64.4494 40.3102C64.1827 40.5374 63.9951 40.8979 63.8864 41.3917Z" fill="#E6E6E6"/>
<path d="M55.6473 45.5102L57.1288 38.488H59.3955L59.3362 39.1398C59.6819 38.9522 60.0967 38.7843 60.5807 38.6361C61.0646 38.4781 61.5387 38.3794 62.0029 38.3398L61.6325 40.1324C61.3659 40.1621 61.0696 40.2115 60.7436 40.2806C60.4177 40.3398 60.1016 40.4139 59.7955 40.5028C59.4992 40.5917 59.2424 40.6855 59.0251 40.7843L58.0325 45.5102H55.6473Z" fill="#E6E6E6"/>
<path d="M49.3406 45.6587C48.5702 45.6587 47.9875 45.4167 47.5924 44.9327C47.2073 44.4488 47.1085 43.7723 47.2961 42.9031L48.2295 38.4883H50.6147L49.711 42.7698C49.6221 43.1649 49.6419 43.4562 49.7702 43.6438C49.9085 43.8216 50.19 43.9105 50.6147 43.9105C50.9011 43.9105 51.1826 43.8512 51.4591 43.7327C51.7456 43.6142 51.9924 43.4661 52.1999 43.2883L53.2221 38.4883H55.6073L54.1258 45.5105H51.9036L51.948 44.9179C51.6122 45.1352 51.227 45.313 50.7924 45.4512C50.3579 45.5895 49.8739 45.6587 49.3406 45.6587Z" fill="#E6E6E6"/>
<path d="M43.7691 45.5556C42.6871 45.5556 41.9124 45.2556 41.4449 44.6556C40.9773 44.0557 40.8504 43.2292 41.0641 42.1759L41.8857 38.3164L37.128 38.2178L30 38.0841L30.2222 36.7818H37.3573L42.27 36.8519L42.8148 34L46 34.0741L45.3921 36.8519H53.5426H57.2593L57.1852 37.4074L57.1111 37.934L53.5426 38.0841L45.1116 38.3164L44.3501 41.956C44.2567 42.4093 44.27 42.7293 44.3902 42.9159C44.5238 43.0892 44.8577 43.1759 45.3921 43.1759C45.8062 43.1759 46.2336 43.1092 46.6744 42.9759L46.2136 45.1556C45.5323 45.4222 44.7175 45.5556 43.7691 45.5556Z" fill="#E6E6E6"/>
<path d="M31.7164 48.7102L33.8794 38.488H35.9535V39.0954C36.2893 38.8584 36.6448 38.6757 37.0201 38.5473C37.4053 38.409 37.835 38.3398 38.309 38.3398C39.3461 38.3398 40.0769 38.651 40.5016 39.2732C40.9263 39.8855 41.0202 40.7942 40.7831 41.9991C40.5362 43.2633 40.067 44.1917 39.3757 44.7843C38.6843 45.367 37.7707 45.6584 36.635 45.6584C35.9041 45.6584 35.3065 45.5053 34.8424 45.1991L34.1016 48.7102H31.7164ZM36.3979 43.9102C36.9016 43.9102 37.3164 43.7572 37.6424 43.451C37.9781 43.1448 38.2201 42.6461 38.3683 41.9547C38.5065 41.2831 38.4868 40.8041 38.309 40.5176C38.1313 40.2313 37.7806 40.088 37.2572 40.088C36.9905 40.088 36.7387 40.1324 36.5016 40.2213C36.2744 40.3102 36.0473 40.4435 35.8201 40.6213L35.2127 43.4658C35.351 43.6139 35.509 43.7275 35.6868 43.8065C35.8744 43.8757 36.1115 43.9102 36.3979 43.9102Z" fill="#E6E6E6"/>
<path d="M26.3437 45.6584C25.3759 45.6584 24.6696 45.3769 24.2252 44.8139C23.7807 44.251 23.677 43.4065 23.9141 42.2806C24.082 41.5004 24.3536 40.8189 24.7289 40.2361C25.1042 39.6435 25.5833 39.1794 26.1659 38.8435C26.7585 38.5078 27.445 38.3398 28.2252 38.3398C28.6302 38.3398 28.9561 38.3893 29.203 38.488C29.4499 38.5769 29.682 38.7102 29.8993 38.888L29.9733 38.488H32.3585L30.877 45.5102H28.8178L28.803 44.9176C28.1116 45.4115 27.2919 45.6584 26.3437 45.6584ZM27.4844 43.925C28.0079 43.925 28.4919 43.7473 28.9363 43.3917L29.5289 40.5769C29.3314 40.251 28.9807 40.088 28.477 40.088C27.9141 40.088 27.4598 40.2658 27.1141 40.6213C26.7684 40.967 26.5116 41.5201 26.3437 42.2806C26.2153 42.9028 26.2351 43.3324 26.403 43.5695C26.5807 43.8065 26.9413 43.925 27.4844 43.925Z" fill="#E6E6E6"/>
<path d="M17.5965 45.7032C16.1144 45.7032 14.8272 45.44 13.735 44.9138C12.6624 44.368 11.892 43.559 11.4239 42.4869C10.9753 41.4147 10.9168 40.0795 11.2484 38.481C11.7555 36.0443 12.8086 34.2315 14.4079 33.0424C16.007 31.8533 18.1231 31.2588 20.756 31.2588C21.7701 31.2588 22.638 31.3368 23.3596 31.4927C24.0812 31.6292 24.7639 31.8631 25.4074 32.1945L24.6761 35.5278C23.7204 35.0015 22.5015 34.7383 21.0193 34.7383C19.6541 34.7383 18.5521 35.0112 17.7136 35.557C16.8944 36.1029 16.3386 37.0775 16.0461 38.481C15.773 39.7871 15.8608 40.7422 16.3093 41.3465C16.7774 41.9313 17.8111 42.2237 19.4103 42.2237C20.834 42.2237 22.1895 41.9313 23.4767 41.3465L22.7453 44.826C21.9652 45.1379 21.1558 45.3621 20.3172 45.4986C19.4786 45.635 18.5717 45.7032 17.5965 45.7032Z" fill="#E6E6E6"/>
</g>
<defs>
<clipPath id="clip0_1_286">
<rect width="80" height="80" fill="white"/>
</clipPath>
</defs>
</svg>
