<svg width="782" height="236" viewBox="0 0 782 236" fill="none" xmlns="http://www.w3.org/2000/svg">
<path d="M726.067 194.392C716.067 194.392 707.267 192.592 699.667 188.992C692.2 185.258 686.8 179.725 683.467 172.392C680.134 165.058 679.6 155.925 681.867 144.992C685.067 129.925 691.4 117.925 700.867 108.992C710.334 100.058 724 95.5918 741.867 95.5918C751.467 95.5918 759.4 97.5251 765.667 101.392C772.067 105.125 776.534 110.192 779.067 116.592C781.6 122.992 782 130.258 780.267 138.392L776.667 155.392H709.467C709.6 161.658 711.8 166.058 716.067 168.592C720.334 170.992 727.734 172.192 738.267 172.192C743.467 172.192 748.867 171.725 754.467 170.792C760.067 169.858 764.8 168.658 768.667 167.192L764.267 188.192C759.334 190.325 753.6 191.858 747.067 192.792C740.534 193.858 733.534 194.392 726.067 194.392ZM713.467 136.792H752.667L753.467 132.592C754.534 127.925 753.934 124.258 751.667 121.592C749.4 118.792 744.934 117.392 738.267 117.392C730.534 117.392 724.8 118.992 721.067 122.192C717.467 125.258 714.934 130.125 713.467 136.792Z" fill="white"/>
<path d="M602.239 192.392L622.239 97.5918H652.839L652.039 106.392C656.705 103.858 662.305 101.592 668.839 99.5918C675.372 97.4585 681.772 96.1251 688.039 95.5918L683.039 119.792C679.439 120.192 675.439 120.858 671.039 121.792C666.639 122.592 662.372 123.592 658.239 124.792C654.239 125.992 650.772 127.258 647.839 128.592L634.439 192.392H602.239Z" fill="white"/>
<path d="M517.098 194.392C506.698 194.392 498.831 191.125 493.498 184.592C488.298 178.058 486.965 168.925 489.498 157.192L502.098 97.5918H534.298L522.098 155.392C520.898 160.725 521.165 164.658 522.898 167.192C524.765 169.592 528.565 170.792 534.298 170.792C538.165 170.792 541.965 169.992 545.698 168.392C549.565 166.792 552.898 164.792 555.698 162.392L569.498 97.5918H601.698L581.698 192.392H551.698L552.298 184.392C547.765 187.325 542.565 189.725 536.698 191.592C530.831 193.458 524.298 194.392 517.098 194.392Z" fill="white"/>
<path d="M441.883 193C427.276 193 416.817 188.951 410.506 180.851C404.194 172.752 402.481 161.594 405.366 147.375L416.457 95.2716L352.228 93.9401L256 92.1358L259 74.5543H355.323L421.645 75.5L429 37L472 38L463.793 75.5H573.825H624L623 83L622 90.1086L573.825 92.1358L460.006 95.2716L449.727 144.406C448.465 150.525 448.645 154.845 450.268 157.364C452.071 159.704 456.579 160.874 463.793 160.874C469.383 160.874 475.153 159.974 481.104 158.174L474.883 187.601C465.686 191.2 454.686 193 441.883 193Z" fill="white"/>
<path d="M279.172 235.592L308.372 97.5918H336.372V105.792C340.905 102.592 345.705 100.125 350.772 98.3918C355.972 96.5251 361.772 95.5918 368.172 95.5918C382.172 95.5918 392.038 99.7918 397.772 108.192C403.505 116.458 404.772 128.725 401.572 144.992C398.238 162.058 391.905 174.592 382.572 182.592C373.238 190.458 360.905 194.392 345.572 194.392C335.705 194.392 327.638 192.325 321.372 188.192L311.372 235.592H279.172ZM342.372 170.792C349.172 170.792 354.772 168.725 359.172 164.592C363.705 160.458 366.972 153.725 368.972 144.392C370.838 135.325 370.572 128.858 368.172 124.992C365.772 121.125 361.038 119.192 353.972 119.192C350.372 119.192 346.972 119.792 343.772 120.992C340.705 122.192 337.638 123.992 334.572 126.392L326.372 164.792C328.238 166.792 330.372 168.325 332.772 169.392C335.305 170.325 338.505 170.792 342.372 170.792Z" fill="white"/>
<path d="M206.64 194.392C193.574 194.392 184.04 190.592 178.04 182.992C172.04 175.392 170.64 163.992 173.84 148.792C176.107 138.258 179.774 129.058 184.84 121.192C189.907 113.192 196.374 106.925 204.24 102.392C212.24 97.8585 221.507 95.5918 232.04 95.5918C237.507 95.5918 241.907 96.2585 245.24 97.5918C248.574 98.7918 251.707 100.592 254.64 102.992L255.64 97.5918H287.84L267.84 192.392H240.04L239.84 184.392C230.507 191.058 219.44 194.392 206.64 194.392ZM222.04 170.992C229.107 170.992 235.64 168.592 241.64 163.792L249.64 125.792C246.974 121.392 242.24 119.192 235.44 119.192C227.84 119.192 221.707 121.592 217.04 126.392C212.374 131.058 208.907 138.525 206.64 148.792C204.907 157.192 205.174 162.992 207.44 166.192C209.84 169.392 214.707 170.992 222.04 170.992Z" fill="white"/>
<path d="M88.5534 195C68.5436 195 51.1666 191.447 36.4225 184.342C21.9417 176.974 11.5419 166.053 5.22296 151.579C-0.832647 137.105 -1.62251 119.079 2.85338 97.5C9.69885 64.6053 23.9164 40.1316 45.5059 24.0789C67.0955 8.0263 95.6622 0 131.206 0C144.897 0 156.613 1.05262 166.355 3.15789C176.096 5 185.312 8.15789 194 12.6316L184.127 57.6316C171.226 50.5263 154.77 46.9737 134.76 46.9737C116.33 46.9737 101.454 50.6579 90.1331 58.0263C79.0751 65.3947 71.5714 78.5526 67.6221 97.5C63.936 115.132 65.1208 128.026 71.1764 136.184C77.4953 144.079 91.4496 148.026 113.039 148.026C132.259 148.026 150.558 144.079 167.935 136.184L158.061 183.158C147.53 187.368 136.603 190.395 125.282 192.237C113.961 194.079 101.718 195 88.5534 195Z" fill="white"/>
</svg>
